<mxfile host="app.diagrams.net" modified="2024-04-15T23:31:49.366Z" agent="Mozilla/5.0 (Windows NT 10.0; Win64; x64) AppleWebKit/537.36 (KHTML, like Gecko) Chrome/123.0.0.0 Safari/537.36" etag="zHPSZ3cT6km5VSz1UIK9" version="24.2.5" type="device">
  <diagram name="Page-1" id="fZlw2iJuap8lRHOYXd0B">
    <mxGraphModel dx="1434" dy="792" grid="1" gridSize="10" guides="1" tooltips="1" connect="1" arrows="1" fold="1" page="1" pageScale="1" pageWidth="850" pageHeight="1100" math="0" shadow="0">
      <root>
        <mxCell id="0" />
        <mxCell id="1" parent="0" />
        <mxCell id="5ZxzOIv58Bh727X50WS4-1" value="Accounts&lt;div&gt;&lt;br&gt;&lt;/div&gt;&lt;div&gt;name: String&lt;/div&gt;&lt;div&gt;password: String&lt;/div&gt;&lt;div&gt;contactInfo: String&lt;/div&gt;&lt;div&gt;&lt;br&gt;&lt;/div&gt;" style="rounded=0;whiteSpace=wrap;html=1;" vertex="1" parent="1">
          <mxGeometry x="420" y="280" width="120" height="140" as="geometry" />
        </mxCell>
        <mxCell id="5ZxzOIv58Bh727X50WS4-3" value="Courses&lt;div&gt;&lt;br&gt;&lt;/div&gt;&lt;div&gt;courseName: String&lt;/div&gt;&lt;div&gt;courseInfo: String&lt;/div&gt;&lt;div&gt;courseDate: String&lt;/div&gt;&lt;div&gt;courseTime: Int&lt;/div&gt;&lt;div&gt;&lt;br&gt;&lt;/div&gt;" style="rounded=0;whiteSpace=wrap;html=1;" vertex="1" parent="1">
          <mxGeometry x="70" y="70" width="120" height="120" as="geometry" />
        </mxCell>
        <mxCell id="5ZxzOIv58Bh727X50WS4-6" value="" style="endArrow=classic;html=1;rounded=0;exitX=0;exitY=0.5;exitDx=0;exitDy=0;entryX=1;entryY=0.5;entryDx=0;entryDy=0;" edge="1" parent="1" source="5ZxzOIv58Bh727X50WS4-1" target="5ZxzOIv58Bh727X50WS4-8">
          <mxGeometry width="50" height="50" relative="1" as="geometry">
            <mxPoint x="430" y="210" as="sourcePoint" />
            <mxPoint x="210" y="310" as="targetPoint" />
          </mxGeometry>
        </mxCell>
        <mxCell id="5ZxzOIv58Bh727X50WS4-7" value="add course to acc&lt;div&gt;and vice versa&lt;/div&gt;" style="text;html=1;align=center;verticalAlign=middle;resizable=0;points=[];autosize=1;strokeColor=none;fillColor=none;" vertex="1" parent="1">
          <mxGeometry x="270" y="350" width="120" height="40" as="geometry" />
        </mxCell>
        <mxCell id="5ZxzOIv58Bh727X50WS4-8" value="Course object&lt;div&gt;&lt;br&gt;&lt;/div&gt;&lt;div&gt;numberEnrolled: Int&lt;/div&gt;&lt;div&gt;courseInstructor: String&lt;/div&gt;&lt;div&gt;courseType: String&lt;/div&gt;" style="rounded=0;whiteSpace=wrap;html=1;" vertex="1" parent="1">
          <mxGeometry x="30" y="280" width="200" height="140" as="geometry" />
        </mxCell>
        <mxCell id="5ZxzOIv58Bh727X50WS4-10" value="" style="endArrow=classic;html=1;rounded=0;exitX=0.5;exitY=1;exitDx=0;exitDy=0;entryX=0.5;entryY=0;entryDx=0;entryDy=0;" edge="1" parent="1" source="5ZxzOIv58Bh727X50WS4-3" target="5ZxzOIv58Bh727X50WS4-8">
          <mxGeometry width="50" height="50" relative="1" as="geometry">
            <mxPoint x="400" y="430" as="sourcePoint" />
            <mxPoint x="450" y="380" as="targetPoint" />
          </mxGeometry>
        </mxCell>
        <mxCell id="5ZxzOIv58Bh727X50WS4-11" value="staffAccount (Accounts subclass)&lt;div&gt;staffName: String&lt;/div&gt;&lt;div&gt;currentClasses: Int&lt;/div&gt;&lt;div&gt;myClassArray: Array&lt;/div&gt;&lt;div&gt;&lt;br&gt;&lt;/div&gt;" style="rounded=0;whiteSpace=wrap;html=1;" vertex="1" parent="1">
          <mxGeometry x="590" y="85" width="210" height="110" as="geometry" />
        </mxCell>
        <mxCell id="5ZxzOIv58Bh727X50WS4-14" value="" style="endArrow=classic;html=1;rounded=0;exitX=1;exitY=0.5;exitDx=0;exitDy=0;entryX=0;entryY=0.5;entryDx=0;entryDy=0;" edge="1" parent="1" source="5ZxzOIv58Bh727X50WS4-1" target="5ZxzOIv58Bh727X50WS4-11">
          <mxGeometry width="50" height="50" relative="1" as="geometry">
            <mxPoint x="400" y="430" as="sourcePoint" />
            <mxPoint x="450" y="380" as="targetPoint" />
          </mxGeometry>
        </mxCell>
        <mxCell id="5ZxzOIv58Bh727X50WS4-18" value="Course Catalogue" style="rounded=0;whiteSpace=wrap;html=1;" vertex="1" parent="1">
          <mxGeometry x="300" y="120" width="120" height="60" as="geometry" />
        </mxCell>
        <mxCell id="5ZxzOIv58Bh727X50WS4-19" value="" style="endArrow=classic;html=1;rounded=0;entryX=0.75;entryY=0;entryDx=0;entryDy=0;exitX=0;exitY=0.5;exitDx=0;exitDy=0;" edge="1" parent="1" source="5ZxzOIv58Bh727X50WS4-18" target="5ZxzOIv58Bh727X50WS4-8">
          <mxGeometry width="50" height="50" relative="1" as="geometry">
            <mxPoint x="240" y="170" as="sourcePoint" />
            <mxPoint x="450" y="290" as="targetPoint" />
          </mxGeometry>
        </mxCell>
        <mxCell id="5ZxzOIv58Bh727X50WS4-21" value="records" style="text;html=1;align=center;verticalAlign=middle;resizable=0;points=[];autosize=1;strokeColor=none;fillColor=none;" vertex="1" parent="1">
          <mxGeometry x="230" y="210" width="60" height="30" as="geometry" />
        </mxCell>
        <mxCell id="5ZxzOIv58Bh727X50WS4-22" value="" style="endArrow=classic;html=1;rounded=0;exitX=1;exitY=0.5;exitDx=0;exitDy=0;entryX=0;entryY=0.25;entryDx=0;entryDy=0;" edge="1" parent="1" source="5ZxzOIv58Bh727X50WS4-18" target="5ZxzOIv58Bh727X50WS4-11">
          <mxGeometry width="50" height="50" relative="1" as="geometry">
            <mxPoint x="400" y="340" as="sourcePoint" />
            <mxPoint x="450" y="290" as="targetPoint" />
          </mxGeometry>
        </mxCell>
        <mxCell id="5ZxzOIv58Bh727X50WS4-23" value="subclass" style="text;html=1;align=center;verticalAlign=middle;resizable=0;points=[];autosize=1;strokeColor=none;fillColor=none;" vertex="1" parent="1">
          <mxGeometry x="555" y="250" width="70" height="30" as="geometry" />
        </mxCell>
      </root>
    </mxGraphModel>
  </diagram>
</mxfile>
